<?xml version="1.0" encoding="UTF-8" standalone="no"?><svg xmlns="http://www.w3.org/2000/svg" xmlns:xlink="http://www.w3.org/1999/xlink" contentScriptType="application/ecmascript" contentStyleType="text/css" height="980px" preserveAspectRatio="none" style="width:626px;height:980px;" version="1.1" viewBox="0 0 626 980" width="626px" zoomAndPan="magnify"><defs><filter height="300%" id="f1q8nzu97ttuk1" width="300%" x="-1" y="-1"><feGaussianBlur result="blurOut" stdDeviation="2.0"/><feColorMatrix in="blurOut" result="blurOut2" type="matrix" values="0 0 0 0 0 0 0 0 0 0 0 0 0 0 0 0 0 0 .4 0"/><feOffset dx="4.0" dy="4.0" in="blurOut2" result="blurOut3"/><feBlend in="SourceGraphic" in2="blurOut3" mode="normal"/></filter></defs><g><text fill="#000000" font-family="sans-serif" font-size="18" lengthAdjust="spacingAndGlyphs" textLength="184" x="223" y="16.708">"BlockingQueue类图"</text><!--class BlockingQueue--><rect fill="#FEFECE" filter="url(#f1q8nzu97ttuk1)" height="176.0469" id="BlockingQueue" style="stroke: #A80036; stroke-width: 1.5;" width="335" x="6" y="685.9531"/><ellipse cx="117.25" cy="701.9531" fill="#B4A7E5" rx="11" ry="11" style="stroke: #A80036; stroke-width: 1.0;"/><path d="M118.2031,698.7344 L118.2031,705.25 L119.9219,705.25 C120.375,705.25 120.5156,705.2813 120.6875,705.4063 C120.9219,705.5781 121.0313,705.8281 121.0313,706.1094 C121.0313,706.6719 120.6719,706.9531 119.9219,706.9531 L114.7813,706.9531 C114.375,706.9531 114.1719,706.9063 114.0156,706.7813 C113.7969,706.625 113.6563,706.3594 113.6563,706.1094 C113.6563,705.8125 113.8125,705.5313 114.0625,705.375 C114.2188,705.2656 114.3438,705.25 114.7813,705.25 L116.5,705.25 L116.5,698.7344 L114.7813,698.7344 C114.3594,698.7344 114.1719,698.7031 114.0156,698.5938 C113.7969,698.4219 113.6563,698.1719 113.6563,697.8906 C113.6563,697.6094 113.8125,697.3125 114.0625,697.1563 C114.2188,697.0625 114.3438,697.0469 114.7813,697.0469 L119.9219,697.0469 C120.375,697.0469 120.5156,697.0781 120.6875,697.1875 C120.9219,697.3594 121.0313,697.625 121.0313,697.8906 C121.0313,698.1875 120.8906,698.4688 120.625,698.625 C120.5,698.7031 120.3125,698.7344 119.9219,698.7344 Z "/><text fill="#000000" font-family="sans-serif" font-size="12" font-style="italic" lengthAdjust="spacingAndGlyphs" textLength="92" x="137.75" y="706.1074">BlockingQueue</text><rect fill="#FFFFFF" height="15.9688" style="stroke: #000000; stroke-width: 1.0; stroke-dasharray: 2.0,2.0;" width="10" x="334" y="682.9531"/><text fill="#000000" font-family="sans-serif" font-size="12" font-style="italic" lengthAdjust="spacingAndGlyphs" textLength="8" x="335" y="695.0918">E</text><line style="stroke: #A80036; stroke-width: 1.5;" x1="7" x2="340" y1="717.9531" y2="717.9531"/><line style="stroke: #A80036; stroke-width: 1.5;" x1="7" x2="340" y1="725.9531" y2="725.9531"/><ellipse cx="17" cy="737.8555" fill="#84BE84" rx="3" ry="3" style="stroke: #038048; stroke-width: 1.0;"/><text fill="#000000" font-family="sans-serif" font-size="11" lengthAdjust="spacingAndGlyphs" textLength="100" x="26" y="740.1636">add (E e):boolean</text><ellipse cx="17" cy="750.6602" fill="#84BE84" rx="3" ry="3" style="stroke: #038048; stroke-width: 1.0;"/><text fill="#000000" font-family="sans-serif" font-size="11" lengthAdjust="spacingAndGlyphs" textLength="71" x="26" y="752.9683">put(E e):void</text><ellipse cx="17" cy="763.4648" fill="#84BE84" rx="3" ry="3" style="stroke: #038048; stroke-width: 1.0;"/><text fill="#000000" font-family="sans-serif" font-size="11" lengthAdjust="spacingAndGlyphs" textLength="215" x="26" y="765.7729">offer(E e, long timeout, TimeUnit unit)</text><ellipse cx="17" cy="776.2695" fill="#84BE84" rx="3" ry="3" style="stroke: #038048; stroke-width: 1.0;"/><text fill="#000000" font-family="sans-serif" font-size="11" lengthAdjust="spacingAndGlyphs" textLength="43" x="26" y="778.5776">take():E</text><ellipse cx="17" cy="789.0742" fill="#84BE84" rx="3" ry="3" style="stroke: #038048; stroke-width: 1.0;"/><text fill="#000000" font-family="sans-serif" font-size="11" lengthAdjust="spacingAndGlyphs" textLength="193" x="26" y="791.3823">poll(long timeout, TimeUnit unit):E</text><ellipse cx="17" cy="801.8789" fill="#84BE84" rx="3" ry="3" style="stroke: #038048; stroke-width: 1.0;"/><text fill="#000000" font-family="sans-serif" font-size="11" lengthAdjust="spacingAndGlyphs" textLength="131" x="26" y="804.187">remainingCapacity():int</text><ellipse cx="17" cy="814.6836" fill="#84BE84" rx="3" ry="3" style="stroke: #038048; stroke-width: 1.0;"/><text fill="#000000" font-family="sans-serif" font-size="11" lengthAdjust="spacingAndGlyphs" textLength="147" x="26" y="816.9917">remove(Object o):boolean</text><ellipse cx="17" cy="827.4883" fill="#84BE84" rx="3" ry="3" style="stroke: #038048; stroke-width: 1.0;"/><text fill="#000000" font-family="sans-serif" font-size="11" lengthAdjust="spacingAndGlyphs" textLength="152" x="26" y="829.7964">contains(Object o):boolean</text><ellipse cx="17" cy="840.293" fill="#84BE84" rx="3" ry="3" style="stroke: #038048; stroke-width: 1.0;"/><text fill="#000000" font-family="sans-serif" font-size="11" lengthAdjust="spacingAndGlyphs" textLength="206" x="26" y="842.6011">drainTo(Collection&lt;? super E&gt; c):int</text><ellipse cx="17" cy="853.0977" fill="#84BE84" rx="3" ry="3" style="stroke: #038048; stroke-width: 1.0;"/><text fill="#000000" font-family="sans-serif" font-size="11" lengthAdjust="spacingAndGlyphs" textLength="309" x="26" y="855.4058">drainTo(Collection&lt;? super E&gt; c, int maxElements):int</text><!--class Iterator--><rect fill="#FEFECE" filter="url(#f1q8nzu97ttuk1)" height="99.2188" id="Iterator" style="stroke: #A80036; stroke-width: 1.5;" width="332" x="278.5" y="28.9531"/><ellipse cx="410.25" cy="44.9531" fill="#B4A7E5" rx="11" ry="11" style="stroke: #A80036; stroke-width: 1.0;"/><path d="M411.2031,41.7344 L411.2031,48.25 L412.9219,48.25 C413.375,48.25 413.5156,48.2813 413.6875,48.4063 C413.9219,48.5781 414.0313,48.8281 414.0313,49.1094 C414.0313,49.6719 413.6719,49.9531 412.9219,49.9531 L407.7813,49.9531 C407.375,49.9531 407.1719,49.9063 407.0156,49.7813 C406.7969,49.625 406.6563,49.3594 406.6563,49.1094 C406.6563,48.8125 406.8125,48.5313 407.0625,48.375 C407.2188,48.2656 407.3438,48.25 407.7813,48.25 L409.5,48.25 L409.5,41.7344 L407.7813,41.7344 C407.3594,41.7344 407.1719,41.7031 407.0156,41.5938 C406.7969,41.4219 406.6563,41.1719 406.6563,40.8906 C406.6563,40.6094 406.8125,40.3125 407.0625,40.1563 C407.2188,40.0625 407.3438,40.0469 407.7813,40.0469 L412.9219,40.0469 C413.375,40.0469 413.5156,40.0781 413.6875,40.1875 C413.9219,40.3594 414.0313,40.625 414.0313,40.8906 C414.0313,41.1875 413.8906,41.4688 413.625,41.625 C413.5,41.7031 413.3125,41.7344 412.9219,41.7344 Z "/><text fill="#000000" font-family="sans-serif" font-size="12" font-style="italic" lengthAdjust="spacingAndGlyphs" textLength="48" x="430.75" y="49.1074">Iterator</text><rect fill="#FFFFFF" height="15.9688" style="stroke: #000000; stroke-width: 1.0; stroke-dasharray: 2.0,2.0;" width="10" x="603.5" y="25.9531"/><text fill="#000000" font-family="sans-serif" font-size="12" font-style="italic" lengthAdjust="spacingAndGlyphs" textLength="8" x="604.5" y="38.0918">E</text><line style="stroke: #A80036; stroke-width: 1.5;" x1="279.5" x2="609.5" y1="60.9531" y2="60.9531"/><line style="stroke: #A80036; stroke-width: 1.5;" x1="279.5" x2="609.5" y1="68.9531" y2="68.9531"/><ellipse cx="289.5" cy="80.8555" fill="#84BE84" rx="3" ry="3" style="stroke: #038048; stroke-width: 1.0;"/><text fill="#000000" font-family="sans-serif" font-size="11" lengthAdjust="spacingAndGlyphs" textLength="103" x="298.5" y="83.1636">hasNext():boolean</text><ellipse cx="289.5" cy="93.6602" fill="#84BE84" rx="3" ry="3" style="stroke: #038048; stroke-width: 1.0;"/><text fill="#000000" font-family="sans-serif" font-size="11" lengthAdjust="spacingAndGlyphs" textLength="43" x="298.5" y="95.9683">next():E</text><ellipse cx="289.5" cy="106.4648" fill="#84BE84" rx="3" ry="3" style="stroke: #038048; stroke-width: 1.0;"/><text fill="#000000" font-family="sans-serif" font-size="11" lengthAdjust="spacingAndGlyphs" textLength="78" x="298.5" y="108.7729">remove():void</text><ellipse cx="289.5" cy="119.2695" fill="#84BE84" rx="3" ry="3" style="stroke: #038048; stroke-width: 1.0;"/><text fill="#000000" font-family="sans-serif" font-size="11" lengthAdjust="spacingAndGlyphs" textLength="306" x="298.5" y="121.5776">forEachRemaining(Consumer&lt;? super E&gt; action) void</text><!--class Collection--><rect fill="#FEFECE" filter="url(#f1q8nzu97ttuk1)" height="265.6797" id="Collection" style="stroke: #A80036; stroke-width: 1.5;" width="288" x="300.5" y="187.9531"/><ellipse cx="403.75" cy="203.9531" fill="#B4A7E5" rx="11" ry="11" style="stroke: #A80036; stroke-width: 1.0;"/><path d="M404.7031,200.7344 L404.7031,207.25 L406.4219,207.25 C406.875,207.25 407.0156,207.2813 407.1875,207.4063 C407.4219,207.5781 407.5313,207.8281 407.5313,208.1094 C407.5313,208.6719 407.1719,208.9531 406.4219,208.9531 L401.2813,208.9531 C400.875,208.9531 400.6719,208.9063 400.5156,208.7813 C400.2969,208.625 400.1563,208.3594 400.1563,208.1094 C400.1563,207.8125 400.3125,207.5313 400.5625,207.375 C400.7188,207.2656 400.8438,207.25 401.2813,207.25 L403,207.25 L403,200.7344 L401.2813,200.7344 C400.8594,200.7344 400.6719,200.7031 400.5156,200.5938 C400.2969,200.4219 400.1563,200.1719 400.1563,199.8906 C400.1563,199.6094 400.3125,199.3125 400.5625,199.1563 C400.7188,199.0625 400.8438,199.0469 401.2813,199.0469 L406.4219,199.0469 C406.875,199.0469 407.0156,199.0781 407.1875,199.1875 C407.4219,199.3594 407.5313,199.625 407.5313,199.8906 C407.5313,200.1875 407.3906,200.4688 407.125,200.625 C407,200.7031 406.8125,200.7344 406.4219,200.7344 Z "/><text fill="#000000" font-family="sans-serif" font-size="12" font-style="italic" lengthAdjust="spacingAndGlyphs" textLength="61" x="424.25" y="208.1074">Collection</text><rect fill="#FFFFFF" height="15.9688" style="stroke: #000000; stroke-width: 1.0; stroke-dasharray: 2.0,2.0;" width="10" x="581.5" y="184.9531"/><text fill="#000000" font-family="sans-serif" font-size="12" font-style="italic" lengthAdjust="spacingAndGlyphs" textLength="8" x="582.5" y="197.0918">E</text><line style="stroke: #A80036; stroke-width: 1.5;" x1="301.5" x2="587.5" y1="219.9531" y2="219.9531"/><line style="stroke: #A80036; stroke-width: 1.5;" x1="301.5" x2="587.5" y1="227.9531" y2="227.9531"/><ellipse cx="311.5" cy="239.8555" fill="#84BE84" rx="3" ry="3" style="stroke: #038048; stroke-width: 1.0;"/><text fill="#000000" font-family="sans-serif" font-size="11" lengthAdjust="spacingAndGlyphs" textLength="48" x="320.5" y="242.1636">size():int</text><ellipse cx="311.5" cy="252.6602" fill="#84BE84" rx="3" ry="3" style="stroke: #038048; stroke-width: 1.0;"/><text fill="#000000" font-family="sans-serif" font-size="11" lengthAdjust="spacingAndGlyphs" textLength="106" x="320.5" y="254.9683">isEmpty(): boolean</text><ellipse cx="311.5" cy="265.4648" fill="#84BE84" rx="3" ry="3" style="stroke: #038048; stroke-width: 1.0;"/><text fill="#000000" font-family="sans-serif" font-size="11" lengthAdjust="spacingAndGlyphs" textLength="152" x="320.5" y="267.7729">contains(Object o):boolean</text><ellipse cx="311.5" cy="278.2695" fill="#84BE84" rx="3" ry="3" style="stroke: #038048; stroke-width: 1.0;"/><text fill="#000000" font-family="sans-serif" font-size="11" lengthAdjust="spacingAndGlyphs" textLength="121" x="320.5" y="280.5776">iterator():Iterator&lt;E&gt;</text><ellipse cx="311.5" cy="291.0742" fill="#84BE84" rx="3" ry="3" style="stroke: #038048; stroke-width: 1.0;"/><text fill="#000000" font-family="sans-serif" font-size="11" lengthAdjust="spacingAndGlyphs" textLength="101" x="320.5" y="293.3823">toArray(): Object[]</text><ellipse cx="311.5" cy="303.8789" fill="#84BE84" rx="3" ry="3" style="stroke: #038048; stroke-width: 1.0;"/><text fill="#000000" font-family="sans-serif" font-size="11" lengthAdjust="spacingAndGlyphs" textLength="94" x="320.5" y="306.187">toArray(T[] a):T[]</text><ellipse cx="311.5" cy="316.6836" fill="#84BE84" rx="3" ry="3" style="stroke: #038048; stroke-width: 1.0;"/><text fill="#000000" font-family="sans-serif" font-size="11" lengthAdjust="spacingAndGlyphs" textLength="96" x="320.5" y="318.9917">add(E e):boolean</text><ellipse cx="311.5" cy="329.4883" fill="#84BE84" rx="3" ry="3" style="stroke: #038048; stroke-width: 1.0;"/><text fill="#000000" font-family="sans-serif" font-size="11" lengthAdjust="spacingAndGlyphs" textLength="147" x="320.5" y="331.7964">remove(Object o):boolean</text><ellipse cx="311.5" cy="342.293" fill="#84BE84" rx="3" ry="3" style="stroke: #038048; stroke-width: 1.0;"/><text fill="#000000" font-family="sans-serif" font-size="11" lengthAdjust="spacingAndGlyphs" textLength="211" x="320.5" y="344.6011">containsAll(Collection&lt;?&gt; c): boolean</text><ellipse cx="311.5" cy="355.0977" fill="#84BE84" rx="3" ry="3" style="stroke: #038048; stroke-width: 1.0;"/><text fill="#000000" font-family="sans-serif" font-size="11" lengthAdjust="spacingAndGlyphs" textLength="244" x="320.5" y="357.4058">addAll(Collection&lt;? extends E&gt; c): boolean</text><ellipse cx="311.5" cy="367.9023" fill="#84BE84" rx="3" ry="3" style="stroke: #038048; stroke-width: 1.0;"/><text fill="#000000" font-family="sans-serif" font-size="11" lengthAdjust="spacingAndGlyphs" textLength="206" x="320.5" y="370.2104">removeAll(Collection&lt;?&gt; c): boolean</text><ellipse cx="311.5" cy="380.707" fill="#84BE84" rx="3" ry="3" style="stroke: #038048; stroke-width: 1.0;"/><text fill="#000000" font-family="sans-serif" font-size="11" lengthAdjust="spacingAndGlyphs" textLength="262" x="320.5" y="383.0151">removeIf(Predicate&lt;? super E&gt; filter):boolean</text><ellipse cx="311.5" cy="393.5117" fill="#84BE84" rx="3" ry="3" style="stroke: #038048; stroke-width: 1.0;"/><text fill="#000000" font-family="sans-serif" font-size="11" lengthAdjust="spacingAndGlyphs" textLength="196" x="320.5" y="395.8198">retainAll(Collection&lt;?&gt; c): boolean</text><ellipse cx="311.5" cy="406.3164" fill="#84BE84" rx="3" ry="3" style="stroke: #038048; stroke-width: 1.0;"/><text fill="#000000" font-family="sans-serif" font-size="11" lengthAdjust="spacingAndGlyphs" textLength="63" x="320.5" y="408.6245">clear():void</text><ellipse cx="311.5" cy="419.1211" fill="#84BE84" rx="3" ry="3" style="stroke: #038048; stroke-width: 1.0;"/><text fill="#000000" font-family="sans-serif" font-size="11" lengthAdjust="spacingAndGlyphs" textLength="156" x="320.5" y="421.4292">spliterator():Spliterator&lt;E&gt;</text><ellipse cx="311.5" cy="431.9258" fill="#84BE84" rx="3" ry="3" style="stroke: #038048; stroke-width: 1.0;"/><text fill="#000000" font-family="sans-serif" font-size="11" lengthAdjust="spacingAndGlyphs" textLength="120" x="320.5" y="434.2339">stream():Stream&lt;E&gt;</text><ellipse cx="311.5" cy="444.7305" fill="#84BE84" rx="3" ry="3" style="stroke: #038048; stroke-width: 1.0;"/><text fill="#000000" font-family="sans-serif" font-size="11" lengthAdjust="spacingAndGlyphs" textLength="167" x="320.5" y="447.0386">parallelStream(): Stream&lt;E&gt;</text><!--class Queue--><rect fill="#FEFECE" filter="url(#f1q8nzu97ttuk1)" height="112.0234" id="Queue" style="stroke: #A80036; stroke-width: 1.5;" width="128" x="291.5" y="513.9531"/><ellipse cx="326.3" cy="529.9531" fill="#B4A7E5" rx="11" ry="11" style="stroke: #A80036; stroke-width: 1.0;"/><path d="M327.2531,526.7344 L327.2531,533.25 L328.9719,533.25 C329.425,533.25 329.5656,533.2813 329.7375,533.4063 C329.9719,533.5781 330.0813,533.8281 330.0813,534.1094 C330.0813,534.6719 329.7219,534.9531 328.9719,534.9531 L323.8313,534.9531 C323.425,534.9531 323.2219,534.9063 323.0656,534.7813 C322.8469,534.625 322.7063,534.3594 322.7063,534.1094 C322.7063,533.8125 322.8625,533.5313 323.1125,533.375 C323.2688,533.2656 323.3938,533.25 323.8313,533.25 L325.55,533.25 L325.55,526.7344 L323.8313,526.7344 C323.4094,526.7344 323.2219,526.7031 323.0656,526.5938 C322.8469,526.4219 322.7063,526.1719 322.7063,525.8906 C322.7063,525.6094 322.8625,525.3125 323.1125,525.1563 C323.2688,525.0625 323.3938,525.0469 323.8313,525.0469 L328.9719,525.0469 C329.425,525.0469 329.5656,525.0781 329.7375,525.1875 C329.9719,525.3594 330.0813,525.625 330.0813,525.8906 C330.0813,526.1875 329.9406,526.4688 329.675,526.625 C329.55,526.7031 329.3625,526.7344 328.9719,526.7344 Z "/><text fill="#000000" font-family="sans-serif" font-size="12" font-style="italic" lengthAdjust="spacingAndGlyphs" textLength="40" x="344.7" y="534.1074">Queue</text><rect fill="#FFFFFF" height="15.9688" style="stroke: #000000; stroke-width: 1.0; stroke-dasharray: 2.0,2.0;" width="10" x="412.5" y="510.9531"/><text fill="#000000" font-family="sans-serif" font-size="12" font-style="italic" lengthAdjust="spacingAndGlyphs" textLength="8" x="413.5" y="523.0918">E</text><line style="stroke: #A80036; stroke-width: 1.5;" x1="292.5" x2="418.5" y1="545.9531" y2="545.9531"/><line style="stroke: #A80036; stroke-width: 1.5;" x1="292.5" x2="418.5" y1="553.9531" y2="553.9531"/><ellipse cx="302.5" cy="565.8555" fill="#84BE84" rx="3" ry="3" style="stroke: #038048; stroke-width: 1.0;"/><text fill="#000000" font-family="sans-serif" font-size="11" lengthAdjust="spacingAndGlyphs" textLength="102" x="311.5" y="568.1636">offer(E e):boolean</text><ellipse cx="302.5" cy="578.6602" fill="#84BE84" rx="3" ry="3" style="stroke: #038048; stroke-width: 1.0;"/><text fill="#000000" font-family="sans-serif" font-size="11" lengthAdjust="spacingAndGlyphs" textLength="66" x="311.5" y="580.9683">remove(): E</text><ellipse cx="302.5" cy="591.4648" fill="#84BE84" rx="3" ry="3" style="stroke: #038048; stroke-width: 1.0;"/><text fill="#000000" font-family="sans-serif" font-size="11" lengthAdjust="spacingAndGlyphs" textLength="43" x="311.5" y="593.7729">poll(): E</text><ellipse cx="302.5" cy="604.2695" fill="#84BE84" rx="3" ry="3" style="stroke: #038048; stroke-width: 1.0;"/><text fill="#000000" font-family="sans-serif" font-size="11" lengthAdjust="spacingAndGlyphs" textLength="69" x="311.5" y="606.5776">element(): E</text><ellipse cx="302.5" cy="617.0742" fill="#84BE84" rx="3" ry="3" style="stroke: #038048; stroke-width: 1.0;"/><text fill="#000000" font-family="sans-serif" font-size="11" lengthAdjust="spacingAndGlyphs" textLength="50" x="311.5" y="619.3823">peek(): E</text><!--class AbstractQueue--><rect fill="#FEFECE" filter="url(#f1q8nzu97ttuk1)" height="48" id="AbstractQueue" style="stroke: #A80036; stroke-width: 1.5;" width="136" x="376.5" y="749.9531"/><ellipse cx="391.5" cy="765.9531" fill="#A9DCDF" rx="11" ry="11" style="stroke: #A80036; stroke-width: 1.0;"/><path d="M393.0781,767.7656 L389.0313,767.7656 L388.6406,768.75 L389.0313,768.75 C389.4844,768.75 389.625,768.7813 389.7969,768.9063 C390.0156,769.0781 390.1406,769.3281 390.1406,769.6094 C390.1406,769.8906 390,770.1875 389.7344,770.3281 C389.6094,770.4219 389.3906,770.4531 389.0313,770.4531 L386.7656,770.4531 C386.0156,770.4531 385.6406,770.1719 385.6406,769.6094 C385.6406,769.3125 385.7969,769.0313 386.0469,768.875 C386.2031,768.7656 386.3594,768.75 386.7813,768.75 L389.4219,762.2344 L388.3438,762.2344 C387.9063,762.2344 387.7344,762.2031 387.5625,762.0938 C387.3438,761.9219 387.2031,761.6719 387.2031,761.3906 C387.2031,761.1094 387.3594,760.8281 387.6094,760.6563 C387.7656,760.5625 387.8906,760.5469 388.3438,760.5469 L392.0156,760.5469 L395.4063,768.75 C395.875,768.75 396.0313,768.7813 396.2031,768.9219 C396.4219,769.0781 396.5625,769.3281 396.5625,769.6094 C396.5625,769.8906 396.4063,770.1875 396.1563,770.3281 C396.0156,770.4219 395.7969,770.4531 395.4375,770.4531 L393.0781,770.4531 C392.6563,770.4531 392.4531,770.4063 392.3125,770.2813 C392.0938,770.125 391.9531,769.875 391.9531,769.6094 C391.9531,769.3125 392.1094,769.0313 392.3594,768.875 C392.5156,768.7656 392.625,768.75 393.0781,768.75 L393.4688,768.75 Z M392.375,766.0625 L391.0469,762.7969 L389.7031,766.0625 Z "/><text fill="#000000" font-family="sans-serif" font-size="12" font-style="italic" lengthAdjust="spacingAndGlyphs" textLength="92" x="405.5" y="770.1074">AbstractQueue</text><rect fill="#FFFFFF" height="15.9688" style="stroke: #000000; stroke-width: 1.0; stroke-dasharray: 2.0,2.0;" width="10" x="505.5" y="746.9531"/><text fill="#000000" font-family="sans-serif" font-size="12" font-style="italic" lengthAdjust="spacingAndGlyphs" textLength="8" x="506.5" y="759.0918">E</text><line style="stroke: #A80036; stroke-width: 1.5;" x1="377.5" x2="511.5" y1="781.9531" y2="781.9531"/><line style="stroke: #A80036; stroke-width: 1.5;" x1="377.5" x2="511.5" y1="789.9531" y2="789.9531"/><!--class AbstractCollection--><rect fill="#FEFECE" filter="url(#f1q8nzu97ttuk1)" height="48" id="AbstractCollection" style="stroke: #A80036; stroke-width: 1.5;" width="157" x="455" y="545.9531"/><ellipse cx="470" cy="561.9531" fill="#A9DCDF" rx="11" ry="11" style="stroke: #A80036; stroke-width: 1.0;"/><path d="M471.5781,563.7656 L467.5313,563.7656 L467.1406,564.75 L467.5313,564.75 C467.9844,564.75 468.125,564.7813 468.2969,564.9063 C468.5156,565.0781 468.6406,565.3281 468.6406,565.6094 C468.6406,565.8906 468.5,566.1875 468.2344,566.3281 C468.1094,566.4219 467.8906,566.4531 467.5313,566.4531 L465.2656,566.4531 C464.5156,566.4531 464.1406,566.1719 464.1406,565.6094 C464.1406,565.3125 464.2969,565.0313 464.5469,564.875 C464.7031,564.7656 464.8594,564.75 465.2813,564.75 L467.9219,558.2344 L466.8438,558.2344 C466.4063,558.2344 466.2344,558.2031 466.0625,558.0938 C465.8438,557.9219 465.7031,557.6719 465.7031,557.3906 C465.7031,557.1094 465.8594,556.8281 466.1094,556.6563 C466.2656,556.5625 466.3906,556.5469 466.8438,556.5469 L470.5156,556.5469 L473.9063,564.75 C474.375,564.75 474.5313,564.7813 474.7031,564.9219 C474.9219,565.0781 475.0625,565.3281 475.0625,565.6094 C475.0625,565.8906 474.9063,566.1875 474.6563,566.3281 C474.5156,566.4219 474.2969,566.4531 473.9375,566.4531 L471.5781,566.4531 C471.1563,566.4531 470.9531,566.4063 470.8125,566.2813 C470.5938,566.125 470.4531,565.875 470.4531,565.6094 C470.4531,565.3125 470.6094,565.0313 470.8594,564.875 C471.0156,564.7656 471.125,564.75 471.5781,564.75 L471.9688,564.75 Z M470.875,562.0625 L469.5469,558.7969 L468.2031,562.0625 Z "/><text fill="#000000" font-family="sans-serif" font-size="12" font-style="italic" lengthAdjust="spacingAndGlyphs" textLength="113" x="484" y="566.1074">AbstractCollection</text><rect fill="#FFFFFF" height="15.9688" style="stroke: #000000; stroke-width: 1.0; stroke-dasharray: 2.0,2.0;" width="10" x="605" y="542.9531"/><text fill="#000000" font-family="sans-serif" font-size="12" font-style="italic" lengthAdjust="spacingAndGlyphs" textLength="8" x="606" y="555.0918">E</text><line style="stroke: #A80036; stroke-width: 1.5;" x1="456" x2="611" y1="577.9531" y2="577.9531"/><line style="stroke: #A80036; stroke-width: 1.5;" x1="456" x2="611" y1="585.9531" y2="585.9531"/><!--class ArrayBlockingQueue--><rect fill="#FEFECE" filter="url(#f1q8nzu97ttuk1)" height="48" id="ArrayBlockingQueue" style="stroke: #A80036; stroke-width: 1.5;" width="169" x="224" y="921.9531"/><ellipse cx="239" cy="937.9531" fill="#ADD1B2" rx="11" ry="11" style="stroke: #A80036; stroke-width: 1.0;"/><path d="M241.3438,933.625 L241.5156,933.7031 C241.7344,933.3906 241.9375,933.2969 242.2344,933.2969 C242.5313,933.2969 242.8125,933.4375 242.9688,933.7031 C243.0625,933.8594 243.0781,933.9844 243.0781,934.4219 L243.0781,935.8438 C243.0781,936.2656 243.0469,936.4531 242.9375,936.6094 C242.7656,936.8281 242.5,936.9688 242.2344,936.9688 C242.0156,936.9688 241.7813,936.8594 241.6406,936.7188 C241.5,936.5938 241.4688,936.4688 241.4063,936.0625 C241.3125,935.6563 241.1406,935.4375 240.6563,935.1563 C240.1875,934.9063 239.5781,934.75 239,934.75 C237.2656,934.75 236.0156,936.0625 236.0156,937.8438 L236.0156,938.9375 C236.0156,940.6406 237.3125,941.7344 239.3594,941.7344 C240.125,941.7344 240.8125,941.6094 241.2344,941.3438 C241.4219,941.25 241.4219,941.25 241.875,940.7656 C242.0625,940.5781 242.2656,940.5 242.4844,940.5 C242.9531,940.5 243.3438,940.8906 243.3438,941.3438 C243.3438,941.7344 243.0156,942.1875 242.4375,942.5938 C241.6875,943.1406 240.5313,943.4375 239.3125,943.4375 C236.4219,943.4375 234.3125,941.5469 234.3125,938.9688 L234.3125,937.8438 C234.3125,935.125 236.3125,933.0469 238.9375,933.0469 C239.8125,933.0469 240.4063,933.1875 241.3438,933.625 Z "/><text fill="#000000" font-family="sans-serif" font-size="12" lengthAdjust="spacingAndGlyphs" textLength="125" x="253" y="942.1074">ArrayBlockingQueue</text><rect fill="#FFFFFF" height="15.9688" style="stroke: #000000; stroke-width: 1.0; stroke-dasharray: 2.0,2.0;" width="10" x="386" y="918.9531"/><text fill="#000000" font-family="sans-serif" font-size="12" font-style="italic" lengthAdjust="spacingAndGlyphs" textLength="8" x="387" y="931.0918">E</text><line style="stroke: #A80036; stroke-width: 1.5;" x1="225" x2="392" y1="953.9531" y2="953.9531"/><line style="stroke: #A80036; stroke-width: 1.5;" x1="225" x2="392" y1="961.9531" y2="961.9531"/><!--link BlockingQueue to ArrayBlockingQueue--><path d="M255.554,878.2802 C268.501,894.5837 280.698,909.9428 290.114,921.8008 " fill="none" id="BlockingQueue-ArrayBlockingQueue" style="stroke: #A80036; stroke-width: 1.0; stroke-dasharray: 7.0,7.0;"/><polygon fill="none" points="249.933,882.4584,242.977,862.4431,260.897,873.7521,249.933,882.4584" style="stroke: #A80036; stroke-width: 1.0;"/><!--link Iterator to Collection--><path d="M444.5,148.1791 C444.5,160.6871 444.5,174.1111 444.5,187.7431 " fill="none" id="Iterator-Collection" style="stroke: #A80036; stroke-width: 1.0;"/><polygon fill="none" points="437.5,148.1221,444.5,128.1221,451.5,148.1221,437.5,148.1221" style="stroke: #A80036; stroke-width: 1.0;"/><!--link Collection to Queue--><path d="M389.982,473.2561 C384.804,487.6271 379.817,501.4671 375.321,513.9441 " fill="none" id="Collection-Queue" style="stroke: #A80036; stroke-width: 1.0;"/><polygon fill="none" points="383.508,470.5731,396.873,454.1301,396.679,475.3191,383.508,470.5731" style="stroke: #A80036; stroke-width: 1.0;"/><!--link Collection to AbstractCollection--><path d="M498.931,473.0141 C509.161,501.4051 518.653,527.7481 525.092,545.6191 " fill="none" id="Collection-AbstractCollection" style="stroke: #A80036; stroke-width: 1.0; stroke-dasharray: 7.0,7.0;"/><polygon fill="none" points="492.321,475.3191,492.127,454.1301,505.492,470.5731,492.321,475.3191" style="stroke: #A80036; stroke-width: 1.0;"/><!--link Queue to AbstractQueue--><path d="M387.885,644.4551 C404.293,681.6961 423.079,724.3361 434.356,749.9291 " fill="none" id="Queue-AbstractQueue" style="stroke: #A80036; stroke-width: 1.0; stroke-dasharray: 7.0,7.0;"/><polygon fill="none" points="381.478,647.2751,379.82,626.1501,394.289,641.6301,381.478,647.2751" style="stroke: #A80036; stroke-width: 1.0;"/><!--link AbstractCollection to AbstractQueue--><path d="M515.143,612.6171 C496.859,654.1161 469.452,716.3211 454.727,749.7411 " fill="none" id="AbstractCollection-AbstractQueue" style="stroke: #A80036; stroke-width: 1.0;"/><polygon fill="none" points="508.821,609.6051,523.291,594.1251,521.632,615.2501,508.821,609.6051" style="stroke: #A80036; stroke-width: 1.0;"/><!--link AbstractQueue to ArrayBlockingQueue--><path d="M413.029,814.2921 C386.34,847.6531 348.975,894.3597 326.9,921.953 " fill="none" id="AbstractQueue-ArrayBlockingQueue" style="stroke: #A80036; stroke-width: 1.0;"/><polygon fill="none" points="407.915,809.4791,425.875,798.2341,418.847,818.2251,407.915,809.4791" style="stroke: #A80036; stroke-width: 1.0;"/><!--
@startuml
Title "BlockingQueue类图"
interface BlockingQueue<E>
interface Iterator<E>
interface Collection<E>
interface Queue<E>
abstract class AbstractQueue<E>
abstract class AbstractCollection<E>
class ArrayBlockingQueue<E>


BlockingQueue <|.. ArrayBlockingQueue
Iterator<|- -Collection
Collection<|- -Queue
Collection<|..AbstractCollection
Queue<|..AbstractQueue
AbstractCollection<|- -AbstractQueue 
AbstractQueue <|- - ArrayBlockingQueue

interface BlockingQueue<E>{
+ add (E e):boolean
+ put(E e):void
+ offer(E e, long timeout, TimeUnit unit)
+ take():E
+ poll(long timeout, TimeUnit unit):E
+ remainingCapacity():int
+ remove(Object o):boolean
+ contains(Object o):boolean
+ drainTo(Collection<? super E> c):int
+ drainTo(Collection<? super E> c, int maxElements):int
}
abstract class AbstractQueue<E>{

}

class ArrayBlockingQueue<E>{
}

interface Iterator<E>{
+ hasNext():boolean
+ next():E
+ remove():void
+ forEachRemaining(Consumer<? super E> action) void
}

interface Collection<E>{
+ size():int
+ isEmpty(): boolean
+ contains(Object o):boolean
+ iterator():Iterator<E> 
+ toArray(): Object[]
+ toArray(T[] a):T[] 
+ add(E e):boolean
+ remove(Object o):boolean
+ containsAll(Collection<?> c): boolean
+ addAll(Collection<? extends E> c): boolean
+ removeAll(Collection<?> c): boolean
+ removeIf(Predicate<? super E> filter):boolean
+ retainAll(Collection<?> c): boolean
+ clear():void
+ spliterator():Spliterator<E>
+ stream():Stream<E>
+ parallelStream(): Stream<E>
}

interface Queue<E>{
+ offer(E e):boolean
+ remove(): E
+ poll(): E
+ element(): E
+ peek(): E
}

abstract class AbstractCollection<E>{
}
@enduml

PlantUML version 1.2018.13beta20(Unknown compile time)
(GPL source distribution)
Java Runtime: Java(TM) SE Runtime Environment
JVM: Java HotSpot(TM) 64-Bit Server VM
Java Version: 1.7.0_25-b15
Operating System: Linux
Default Encoding: UTF-8
Language: en
Country: US
--></g></svg>