<?xml version="1.0" encoding="UTF-8" standalone="no"?><svg xmlns="http://www.w3.org/2000/svg" xmlns:xlink="http://www.w3.org/1999/xlink" contentScriptType="application/ecmascript" contentStyleType="text/css" height="483px" preserveAspectRatio="none" style="width:389px;height:483px;" version="1.1" viewBox="0 0 389 483" width="389px" zoomAndPan="magnify"><defs><filter height="300%" id="ftbj1ogmnwkda" width="300%" x="-1" y="-1"><feGaussianBlur result="blurOut" stdDeviation="2.0"/><feColorMatrix in="blurOut" result="blurOut2" type="matrix" values="0 0 0 0 0 0 0 0 0 0 0 0 0 0 0 0 0 0 .4 0"/><feOffset dx="4.0" dy="4.0" in="blurOut2" result="blurOut3"/><feBlend in="SourceGraphic" in2="blurOut3" mode="normal"/></filter></defs><g><text fill="#000000" font-family="sans-serif" font-size="18" lengthAdjust="spacingAndGlyphs" textLength="156" x="119" y="16.708">"FutureTask 类图"</text><!--class Future--><rect fill="#FEFECE" filter="url(#ftbj1ogmnwkda)" height="112.0234" id="Future" style="stroke: #A80036; stroke-width: 1.5;" width="241" x="6" y="28.9531"/><ellipse cx="95.75" cy="44.9531" fill="#B4A7E5" rx="11" ry="11" style="stroke: #A80036; stroke-width: 1.0;"/><path d="M96.7031,41.7344 L96.7031,48.25 L98.4219,48.25 C98.875,48.25 99.0156,48.2813 99.1875,48.4063 C99.4219,48.5781 99.5313,48.8281 99.5313,49.1094 C99.5313,49.6719 99.1719,49.9531 98.4219,49.9531 L93.2813,49.9531 C92.875,49.9531 92.6719,49.9063 92.5156,49.7813 C92.2969,49.625 92.1563,49.3594 92.1563,49.1094 C92.1563,48.8125 92.3125,48.5313 92.5625,48.375 C92.7188,48.2656 92.8438,48.25 93.2813,48.25 L95,48.25 L95,41.7344 L93.2813,41.7344 C92.8594,41.7344 92.6719,41.7031 92.5156,41.5938 C92.2969,41.4219 92.1563,41.1719 92.1563,40.8906 C92.1563,40.6094 92.3125,40.3125 92.5625,40.1563 C92.7188,40.0625 92.8438,40.0469 93.2813,40.0469 L98.4219,40.0469 C98.875,40.0469 99.0156,40.0781 99.1875,40.1875 C99.4219,40.3594 99.5313,40.625 99.5313,40.8906 C99.5313,41.1875 99.3906,41.4688 99.125,41.625 C99,41.7031 98.8125,41.7344 98.4219,41.7344 Z "/><text fill="#000000" font-family="sans-serif" font-size="12" font-style="italic" lengthAdjust="spacingAndGlyphs" textLength="41" x="116.25" y="49.1074">Future</text><rect fill="#FFFFFF" height="15.9688" style="stroke: #000000; stroke-width: 1.0; stroke-dasharray: 2.0,2.0;" width="10" x="240" y="25.9531"/><text fill="#000000" font-family="sans-serif" font-size="12" font-style="italic" lengthAdjust="spacingAndGlyphs" textLength="8" x="241" y="38.0918">V</text><line style="stroke: #A80036; stroke-width: 1.5;" x1="7" x2="246" y1="60.9531" y2="60.9531"/><line style="stroke: #A80036; stroke-width: 1.5;" x1="7" x2="246" y1="68.9531" y2="68.9531"/><ellipse cx="17" cy="80.8555" fill="#84BE84" rx="3" ry="3" style="stroke: #038048; stroke-width: 1.0;"/><text fill="#000000" font-family="sans-serif" font-size="11" lengthAdjust="spacingAndGlyphs" textLength="215" x="26" y="83.1636">cancel(boolean mayInterrupt):boolean</text><ellipse cx="17" cy="93.6602" fill="#84BE84" rx="3" ry="3" style="stroke: #038048; stroke-width: 1.0;"/><text fill="#000000" font-family="sans-serif" font-size="11" lengthAdjust="spacingAndGlyphs" textLength="122" x="26" y="95.9683">isCancelled():boolean</text><ellipse cx="17" cy="106.4648" fill="#84BE84" rx="3" ry="3" style="stroke: #038048; stroke-width: 1.0;"/><text fill="#000000" font-family="sans-serif" font-size="11" lengthAdjust="spacingAndGlyphs" textLength="96" x="26" y="108.7729">isDone():boolean</text><ellipse cx="17" cy="119.2695" fill="#84BE84" rx="3" ry="3" style="stroke: #038048; stroke-width: 1.0;"/><text fill="#000000" font-family="sans-serif" font-size="11" lengthAdjust="spacingAndGlyphs" textLength="37" x="26" y="121.5776">get():V</text><ellipse cx="17" cy="132.0742" fill="#84BE84" rx="3" ry="3" style="stroke: #038048; stroke-width: 1.0;"/><text fill="#000000" font-family="sans-serif" font-size="11" lengthAdjust="spacingAndGlyphs" textLength="191" x="26" y="134.3823">get(long timeout, TimeUnit unit):V</text><!--class Runnable--><rect fill="#FEFECE" filter="url(#ftbj1ogmnwkda)" height="60.8047" id="Runnable" style="stroke: #A80036; stroke-width: 1.5;" width="91" x="282" y="54.4531"/><ellipse cx="297" cy="70.4531" fill="#B4A7E5" rx="11" ry="11" style="stroke: #A80036; stroke-width: 1.0;"/><path d="M297.9531,67.2344 L297.9531,73.75 L299.6719,73.75 C300.125,73.75 300.2656,73.7813 300.4375,73.9063 C300.6719,74.0781 300.7813,74.3281 300.7813,74.6094 C300.7813,75.1719 300.4219,75.4531 299.6719,75.4531 L294.5313,75.4531 C294.125,75.4531 293.9219,75.4063 293.7656,75.2813 C293.5469,75.125 293.4063,74.8594 293.4063,74.6094 C293.4063,74.3125 293.5625,74.0313 293.8125,73.875 C293.9688,73.7656 294.0938,73.75 294.5313,73.75 L296.25,73.75 L296.25,67.2344 L294.5313,67.2344 C294.1094,67.2344 293.9219,67.2031 293.7656,67.0938 C293.5469,66.9219 293.4063,66.6719 293.4063,66.3906 C293.4063,66.1094 293.5625,65.8125 293.8125,65.6563 C293.9688,65.5625 294.0938,65.5469 294.5313,65.5469 L299.6719,65.5469 C300.125,65.5469 300.2656,65.5781 300.4375,65.6875 C300.6719,65.8594 300.7813,66.125 300.7813,66.3906 C300.7813,66.6875 300.6406,66.9688 300.375,67.125 C300.25,67.2031 300.0625,67.2344 299.6719,67.2344 Z "/><text fill="#000000" font-family="sans-serif" font-size="12" font-style="italic" lengthAdjust="spacingAndGlyphs" textLength="59" x="311" y="74.6074">Runnable</text><line style="stroke: #A80036; stroke-width: 1.5;" x1="283" x2="372" y1="86.4531" y2="86.4531"/><line style="stroke: #A80036; stroke-width: 1.5;" x1="283" x2="372" y1="94.4531" y2="94.4531"/><ellipse cx="293" cy="106.3555" fill="#84BE84" rx="3" ry="3" style="stroke: #038048; stroke-width: 1.0;"/><text fill="#000000" font-family="sans-serif" font-size="11" lengthAdjust="spacingAndGlyphs" textLength="62" x="302" y="108.6636">run() : void</text><!--class RunnableFuture--><rect fill="#FEFECE" filter="url(#ftbj1ogmnwkda)" height="48" id="RunnableFuture" style="stroke: #A80036; stroke-width: 1.5;" width="144" x="154.5" y="200.9531"/><ellipse cx="169.5" cy="216.9531" fill="#B4A7E5" rx="11" ry="11" style="stroke: #A80036; stroke-width: 1.0;"/><path d="M170.4531,213.7344 L170.4531,220.25 L172.1719,220.25 C172.625,220.25 172.7656,220.2813 172.9375,220.4063 C173.1719,220.5781 173.2813,220.8281 173.2813,221.1094 C173.2813,221.6719 172.9219,221.9531 172.1719,221.9531 L167.0313,221.9531 C166.625,221.9531 166.4219,221.9063 166.2656,221.7813 C166.0469,221.625 165.9063,221.3594 165.9063,221.1094 C165.9063,220.8125 166.0625,220.5313 166.3125,220.375 C166.4688,220.2656 166.5938,220.25 167.0313,220.25 L168.75,220.25 L168.75,213.7344 L167.0313,213.7344 C166.6094,213.7344 166.4219,213.7031 166.2656,213.5938 C166.0469,213.4219 165.9063,213.1719 165.9063,212.8906 C165.9063,212.6094 166.0625,212.3125 166.3125,212.1563 C166.4688,212.0625 166.5938,212.0469 167.0313,212.0469 L172.1719,212.0469 C172.625,212.0469 172.7656,212.0781 172.9375,212.1875 C173.1719,212.3594 173.2813,212.625 173.2813,212.8906 C173.2813,213.1875 173.1406,213.4688 172.875,213.625 C172.75,213.7031 172.5625,213.7344 172.1719,213.7344 Z "/><text fill="#000000" font-family="sans-serif" font-size="12" font-style="italic" lengthAdjust="spacingAndGlyphs" textLength="100" x="183.5" y="221.1074">RunnableFuture</text><rect fill="#FFFFFF" height="15.9688" style="stroke: #000000; stroke-width: 1.0; stroke-dasharray: 2.0,2.0;" width="10" x="291.5" y="197.9531"/><text fill="#000000" font-family="sans-serif" font-size="12" font-style="italic" lengthAdjust="spacingAndGlyphs" textLength="8" x="292.5" y="210.0918">V</text><line style="stroke: #A80036; stroke-width: 1.5;" x1="155.5" x2="297.5" y1="232.9531" y2="232.9531"/><line style="stroke: #A80036; stroke-width: 1.5;" x1="155.5" x2="297.5" y1="240.9531" y2="240.9531"/><!--class FutureTask--><rect fill="#FEFECE" filter="url(#ftbj1ogmnwkda)" height="163.2422" id="FutureTask" style="stroke: #A80036; stroke-width: 1.5;" width="298" x="77.5" y="308.9531"/><ellipse cx="181.25" cy="324.9531" fill="#ADD1B2" rx="11" ry="11" style="stroke: #A80036; stroke-width: 1.0;"/><path d="M183.5938,320.625 L183.7656,320.7031 C183.9844,320.3906 184.1875,320.2969 184.4844,320.2969 C184.7813,320.2969 185.0625,320.4375 185.2188,320.7031 C185.3125,320.8594 185.3281,320.9844 185.3281,321.4219 L185.3281,322.8438 C185.3281,323.2656 185.2969,323.4531 185.1875,323.6094 C185.0156,323.8281 184.75,323.9688 184.4844,323.9688 C184.2656,323.9688 184.0313,323.8594 183.8906,323.7188 C183.75,323.5938 183.7188,323.4688 183.6563,323.0625 C183.5625,322.6563 183.3906,322.4375 182.9063,322.1563 C182.4375,321.9063 181.8281,321.75 181.25,321.75 C179.5156,321.75 178.2656,323.0625 178.2656,324.8438 L178.2656,325.9375 C178.2656,327.6406 179.5625,328.7344 181.6094,328.7344 C182.375,328.7344 183.0625,328.6094 183.4844,328.3438 C183.6719,328.25 183.6719,328.25 184.125,327.7656 C184.3125,327.5781 184.5156,327.5 184.7344,327.5 C185.2031,327.5 185.5938,327.8906 185.5938,328.3438 C185.5938,328.7344 185.2656,329.1875 184.6875,329.5938 C183.9375,330.1406 182.7813,330.4375 181.5625,330.4375 C178.6719,330.4375 176.5625,328.5469 176.5625,325.9688 L176.5625,324.8438 C176.5625,322.125 178.5625,320.0469 181.1875,320.0469 C182.0625,320.0469 182.6563,320.1875 183.5938,320.625 Z "/><text fill="#000000" font-family="sans-serif" font-size="12" lengthAdjust="spacingAndGlyphs" textLength="70" x="201.75" y="329.1074">FutureTask</text><rect fill="#FFFFFF" height="15.9688" style="stroke: #000000; stroke-width: 1.0; stroke-dasharray: 2.0,2.0;" width="10" x="368.5" y="305.9531"/><text fill="#000000" font-family="sans-serif" font-size="12" font-style="italic" lengthAdjust="spacingAndGlyphs" textLength="8" x="369.5" y="318.0918">V</text><line style="stroke: #A80036; stroke-width: 1.5;" x1="78.5" x2="374.5" y1="340.9531" y2="340.9531"/><line style="stroke: #A80036; stroke-width: 1.5;" x1="78.5" x2="374.5" y1="348.9531" y2="348.9531"/><rect fill="#F24D5C" height="6" style="stroke: #C82930; stroke-width: 1.0;" width="6" x="85.5" y="357.8555"/><text fill="#000000" font-family="sans-serif" font-size="11" lengthAdjust="spacingAndGlyphs" textLength="87" x="97.5" y="363.1636">report(int s) : V</text><polygon fill="#FFFF44" points="88.5,368.6602,92.5,372.6602,88.5,376.6602,84.5,372.6602" style="stroke: #B38D22; stroke-width: 1.0;"/><text fill="#000000" font-family="sans-serif" font-size="11" lengthAdjust="spacingAndGlyphs" textLength="71" x="97.5" y="375.9683">done() : void</text><polygon fill="#FFFF44" points="88.5,381.4648,92.5,385.4648,88.5,389.4648,84.5,385.4648" style="stroke: #B38D22; stroke-width: 1.0;"/><text fill="#000000" font-family="sans-serif" font-size="11" lengthAdjust="spacingAndGlyphs" textLength="78" x="97.5" y="388.7729">set(V v) : void</text><polygon fill="#FFFF44" points="88.5,394.2695,92.5,398.2695,88.5,402.2695,84.5,398.2695" style="stroke: #B38D22; stroke-width: 1.0;"/><text fill="#000000" font-family="sans-serif" font-size="11" lengthAdjust="spacingAndGlyphs" textLength="182" x="97.5" y="401.5776">setException(Throwable t) : void</text><polygon fill="#FFFF44" points="88.5,407.0742,92.5,411.0742,88.5,415.0742,84.5,411.0742" style="stroke: #B38D22; stroke-width: 1.0;"/><text fill="#000000" font-family="sans-serif" font-size="11" lengthAdjust="spacingAndGlyphs" textLength="137" x="97.5" y="414.3823">runAndReset() : boolean</text><rect fill="#F24D5C" height="6" style="stroke: #C82930; stroke-width: 1.0;" width="6" x="85.5" y="421.8789"/><text fill="#000000" font-family="sans-serif" font-size="11" lengthAdjust="spacingAndGlyphs" textLength="272" x="97.5" y="427.187">handlePossibleCancellationInterrupt(int s) : void</text><rect fill="#F24D5C" height="6" style="stroke: #C82930; stroke-width: 1.0;" width="6" x="85.5" y="434.6836"/><text fill="#000000" font-family="sans-serif" font-size="11" lengthAdjust="spacingAndGlyphs" textLength="138" x="97.5" y="439.9917">finishCompletion() : void</text><rect fill="#F24D5C" height="6" style="stroke: #C82930; stroke-width: 1.0;" width="6" x="85.5" y="447.4883"/><text fill="#000000" font-family="sans-serif" font-size="11" lengthAdjust="spacingAndGlyphs" textLength="245" x="97.5" y="452.7964">awaitDone(boolean, timed, long nanos): int</text><rect fill="#F24D5C" height="6" style="stroke: #C82930; stroke-width: 1.0;" width="6" x="85.5" y="460.293"/><text fill="#000000" font-family="sans-serif" font-size="11" lengthAdjust="spacingAndGlyphs" textLength="205" x="97.5" y="465.6011">removeWaiter(WaitNode node) : void</text><!--link Future to RunnableFuture--><path d="M178.346,157.5011 C189.67,173.1281 200.867,188.5801 209.611,200.6461 " fill="none" id="Future-RunnableFuture" style="stroke: #A80036; stroke-width: 1.0;"/><polygon fill="none" points="172.665,161.5901,166.598,141.2881,184.001,153.3751,172.665,161.5901" style="stroke: #A80036; stroke-width: 1.0;"/><!--link Runnable to RunnableFuture--><path d="M293.874,131.8971 C276.958,155.0111 257.187,182.0251 243.456,200.7861 " fill="none" id="Runnable-RunnableFuture" style="stroke: #A80036; stroke-width: 1.0;"/><polygon fill="none" points="288.372,127.5621,305.833,115.5571,299.67,135.8311,288.372,127.5621" style="stroke: #A80036; stroke-width: 1.0;"/><!--link RunnableFuture to FutureTask--><path d="M226.5,269.1451 C226.5,281.4051 226.5,295.1651 226.5,308.8821 " fill="none" id="RunnableFuture-FutureTask" style="stroke: #A80036; stroke-width: 1.0;"/><polygon fill="none" points="219.5,269.0321,226.5,249.0321,233.5,269.0321,219.5,269.0321" style="stroke: #A80036; stroke-width: 1.0;"/><!--
@startuml
Title "FutureTask 类图"
interface Future<V>
interface Runnable
interface RunnableFuture<V>
class FutureTask<V>
Future <|- - RunnableFuture
Runnable <|- - RunnableFuture
RunnableFuture <|- - FutureTask

interface Future<V>{
+ cancel(boolean mayInterrupt):boolean 
+ isCancelled():boolean 
+ isDone():boolean 
+ get():V
+ get(long timeout, TimeUnit unit):V
}

interface Runnable{
+ run() : void
}

class FutureTask<V>{
- report(int s) : V
# done() : void
# set(V v) : void
# setException(Throwable t) : void
# runAndReset() : boolean
- handlePossibleCancellationInterrupt(int s) : void
- finishCompletion() : void
- awaitDone(boolean, timed, long nanos): int
- removeWaiter(WaitNode node) : void
}
@enduml

PlantUML version 1.2018.13beta20(Unknown compile time)
(GPL source distribution)
Java Runtime: Java(TM) SE Runtime Environment
JVM: Java HotSpot(TM) 64-Bit Server VM
Java Version: 1.7.0_25-b15
Operating System: Linux
Default Encoding: UTF-8
Language: en
Country: US
--></g></svg>